# xmcd
#
# Track frame offsets:
#	183
#	15703
#	29850
#	48073
#	64708
#	80415
#	89735
#	102860
#	118993
#	144710
#	160863
#
# Disc length: 2338 seconds
#
# Revision: 0
# Processed by: cddbd v1.4PL0 Copyright (c) Steve Scherf et al.
# Submitted via: EasyCDDAExtractor 5.0.5.1
#
DISCID=9609200b
DTITLE=Esclarecidos - Esclarecidos 2
DYEAR=1985
DGENRE=Blues
TTITLE0=Los pies fríos
TTITLE1=Pipeline
TTITLE2=Saxofón night club
TTITLE3=Recorrerá tu piel
TTITLE4=Milú
TTITLE5=Dos españolas solas
TTITLE6=arponera
TTITLE7=Bajo la nieve
TTITLE8=Miles, miles, miles
TTITLE9=El dormía en un fotomaton
TTITLE10=En plan velas
EXTD=ID3G: 0
EXTT0=
EXTT1=
EXTT2=
EXTT3=
EXTT4=
EXTT5=
EXTT6=
EXTT7=
EXTT8=
EXTT9=
EXTT10=
PLAYORDER=
